<svg viewBox="128.6 150.6 508 176" version="1.1" xmlns="http://www.w3.org/2000/svg" id="OBJECTS" style="max-height: 500px" width="508" height="176">
  
  <defs>
    <style>
      .st0 {
        fill: #f2e5da;
      }

      .st1 {
        fill: #ff743d;
      }
    </style>
  </defs>
  <g>
    <polygon points="207.29 176.23 193.14 210.45 178.23 250.41 161.59 206.63 148.98 176.23 127.18 176.23 167.33 271.06 188.93 271.06 228.89 176.23 207.29 176.23" class="st0"/>
    <path d="M271.81,173.94c-29.44,0-49.52,20.46-49.52,49.13,0,30.21,19.88,49.9,50.85,49.9,14.53,0,30.78-5.35,40.53-16.06l-12.81-12.43c-5.74,6.5-17.78,10.13-27.34,10.13-17.21,0-29.06-9.37-30.78-23.71h76.47c3.63-38.43-17.02-56.97-47.41-56.97ZM243.14,214.28c3.06-14.91,14.91-22.75,29.25-22.75,15.87,0,26.77,7.84,27.91,22.75h-57.16Z" class="st0"/>
    <path d="M507.12,174.51c-29.25,0-48.56,21.41-48.56,49.13,0,8.79,1.9,16.9,5.42,23.89-1.9,1.42-3.77,2.53-5.57,3.41l-.05-.15c-2.34,1.17-4.9,2.12-7.41,2.69-1.97.4-3.64.53-4.89.55-9-.11-13.32-5.63-13.32-15.48v-44.93h27.72v-18.01h-27.53v-26.34l-19.88,2.1v24.24h-18.16v18.01h18.16v44.93c0,22.18,11.66,33.84,32.12,33.26.3,0,.59-.02.89-.02.24,0,.47-.01.7-.02.37-.01.75-.02,1.11-.04,13.8-.69,22.26-7.07,26.19-10.99,8.3,7.44,19.59,11.84,33.05,11.84,29.63,0,48.94-21.03,48.94-48.94s-19.88-49.13-48.94-49.13ZM507.12,254.23c-17.97,0-28.87-13.76-28.87-30.59s10.9-30.97,28.87-30.97,29.06,14.34,29.06,30.97-10.9,30.59-29.06,30.59Z" class="st0"/>
    <path d="M610.46,174.32c-10.13,0-20.84,2.49-27.72,14.53l-1.34-12.43h-18.35v94.25h19.69v-51.04c0-17.4,11.85-25.81,25.43-25.81,7.26,0,11.85,1.91,16.63,5.74l8.99-17.21c-5.35-4.78-14.15-8.03-23.32-8.03Z" class="st0"/>
    <path d="M375.23,254.04c-16.25,0-30.02-10.51-30.02-30.4,0-18.74,13.19-30.78,30.21-30.78,3.38,0,6.84.56,10.16,1.69v-19.45c-3.31-.66-6.75-.98-10.35-.98-27.34,0-49.71,17.01-49.71,49.51s22.56,49.52,49.71,49.52c13.57,0,25.24-4.4,35.75-14.72l-13.38-13.19c-6.12,6.31-14.34,8.79-22.37,8.79Z" class="st0"/>
  </g>
  <polygon points="166.02 218.21 178.23 252.92 190.16 218.21 166.02 218.21" class="st1"/>
  <g>
    <path d="M260.82,305.12h2.04v14.88h-2.04v-14.88Z" class="st0"/>
    <path d="M270.28,305.12h2.38l7.42,12.02v-12.02h1.92v14.88h-2.26l-7.53-12.01v12.01h-1.92v-14.88Z" class="st0"/>
    <path d="M299.21,305.12v1.77h-5.01v13.11h-2.04v-13.11h-5.01v-1.77h12.06Z" class="st0"/>
    <path d="M305.41,305.12h10.8v1.82h-8.83v4.52h8.17v1.72h-8.17v5.04h8.99v1.77h-10.95v-14.88Z" class="st0"/>
    <path d="M323.45,305.12h6.76c1.11,0,2.03.17,2.75.5,1.37.63,2.06,1.81,2.06,3.52,0,.89-.18,1.62-.55,2.19-.37.57-.88,1.02-1.54,1.37.58.24,1.02.55,1.31.93.29.38.46,1.01.49,1.87l.07,2c.02.57.07.99.14,1.27.12.47.34.78.65.91v.33h-2.47c-.07-.13-.12-.29-.16-.5-.04-.2-.08-.59-.1-1.17l-.12-2.48c-.05-.97-.4-1.62-1.05-1.96-.37-.18-.96-.27-1.76-.27h-4.46v6.38h-2.02v-14.88ZM329.99,311.94c.92,0,1.65-.19,2.18-.57.54-.38.8-1.06.8-2.05,0-1.06-.37-1.78-1.12-2.17-.4-.2-.94-.3-1.61-.3h-4.79v5.09h4.53Z" class="st0"/>
    <path d="M342.79,305.12h2.04v14.88h-2.04v-14.88Z" class="st0"/>
    <path d="M364.51,307.25c.99,1.32,1.48,3,1.48,5.06,0,2.22-.56,4.07-1.69,5.54-1.32,1.73-3.21,2.59-5.66,2.59-2.29,0-4.09-.76-5.4-2.27-1.17-1.46-1.75-3.3-1.75-5.53,0-2.01.5-3.73,1.5-5.17,1.28-1.84,3.18-2.76,5.69-2.76s4.57.84,5.83,2.53ZM362.73,316.73c.79-1.27,1.19-2.74,1.19-4.4,0-1.75-.46-3.16-1.37-4.23-.92-1.07-2.17-1.6-3.75-1.6s-2.8.53-3.77,1.59c-.97,1.06-1.46,2.62-1.46,4.68,0,1.65.42,3.04,1.25,4.17.83,1.13,2.19,1.7,4.06,1.7s3.06-.64,3.85-1.91Z" class="st0"/>
    <path d="M372.78,305.12h6.77c1.11,0,2.03.17,2.75.5,1.37.63,2.06,1.81,2.06,3.52,0,.89-.18,1.62-.55,2.19-.37.57-.88,1.02-1.54,1.37.58.24,1.02.55,1.31.93.29.38.46,1.01.49,1.87l.07,2c.02.57.07.99.14,1.27.12.47.34.78.65.91v.33h-2.47c-.07-.13-.12-.29-.16-.5-.04-.2-.08-.59-.1-1.17l-.12-2.48c-.05-.97-.4-1.62-1.05-1.96-.37-.18-.96-.27-1.76-.27h-4.46v6.38h-2.02v-14.88ZM379.33,311.94c.92,0,1.65-.19,2.18-.57.54-.38.8-1.06.8-2.05,0-1.06-.37-1.78-1.12-2.17-.4-.2-.94-.3-1.61-.3h-4.79v5.09h4.53Z" class="st0"/>
    <path d="M401.67,305.12h5.95c2.02,0,3.59.73,4.7,2.18.99,1.31,1.49,2.99,1.49,5.03,0,1.58-.29,3.01-.88,4.29-1.03,2.26-2.81,3.38-5.33,3.38h-5.93v-14.88ZM407.22,318.28c.67,0,1.21-.07,1.64-.21.77-.26,1.39-.77,1.88-1.52.39-.6.67-1.37.84-2.31.1-.56.15-1.08.15-1.56,0-1.84-.36-3.27-1.08-4.29-.72-1.02-1.87-1.53-3.46-1.53h-3.5v11.43h3.52Z" class="st0"/>
    <path d="M420.9,305.12h10.8v1.82h-8.83v4.52h8.16v1.72h-8.16v5.04h8.99v1.77h-10.95v-14.88Z" class="st0"/>
    <path d="M440.02,315.2c.04.84.24,1.53.58,2.06.64.99,1.78,1.48,3.41,1.48.73,0,1.39-.11,1.99-.32,1.16-.42,1.74-1.17,1.74-2.25,0-.81-.25-1.39-.74-1.73-.5-.34-1.28-.63-2.34-.88l-1.95-.46c-1.28-.3-2.18-.62-2.71-.98-.92-.62-1.37-1.55-1.37-2.79,0-1.34.45-2.43,1.35-3.29.9-.86,2.18-1.29,3.83-1.29,1.52,0,2.81.38,3.87,1.13,1.06.75,1.59,1.96,1.59,3.61h-1.89c-.1-.8-.3-1.41-.62-1.83-.59-.78-1.59-1.17-3-1.17-1.14,0-1.96.25-2.46.75-.5.5-.75,1.08-.75,1.74,0,.73.29,1.26.88,1.6.39.22,1.26.49,2.62.81l2.02.48c.98.23,1.73.54,2.26.94.92.7,1.37,1.71,1.37,3.03,0,1.65-.58,2.83-1.75,3.54-1.17.71-2.53,1.06-4.08,1.06-1.8,0-3.22-.47-4.24-1.42-1.02-.94-1.52-2.21-1.5-3.82h1.89Z" class="st0"/>
    <path d="M457.14,305.12h2.04v14.88h-2.04v-14.88Z" class="st0"/>
    <path d="M476.5,305.55c1.46.78,2.35,2.14,2.68,4.08h-2c-.24-1.09-.73-1.88-1.48-2.38-.75-.5-1.69-.74-2.83-.74-1.35,0-2.49.52-3.41,1.55s-1.38,2.57-1.38,4.62c0,1.77.38,3.21,1.14,4.32s2,1.67,3.72,1.67c1.32,0,2.41-.39,3.27-1.17.86-.78,1.31-2.04,1.33-3.78h-4.66v-1.67h6.53v7.96h-1.3l-.49-1.91c-.67.75-1.27,1.27-1.78,1.56-.87.5-1.98.75-3.32.75-1.73,0-3.22-.57-4.47-1.71-1.36-1.43-2.04-3.4-2.04-5.9s.67-4.47,2-5.95c1.26-1.4,2.9-2.11,4.91-2.11,1.38,0,2.57.27,3.57.81Z" class="st0"/>
    <path d="M486.89,305.12h2.38l7.42,12.02v-12.02h1.92v14.88h-2.26l-7.53-12.01v12.01h-1.92v-14.88Z" class="st0"/>
  </g>
</svg>