<?xml version="1.0" encoding="UTF-8"?>
<!DOCTYPE svg PUBLIC "-//W3C//DTD SVG 1.1//EN" "http://www.w3.org/Graphics/SVG/1.1/DTD/svg11.dtd">
<!-- Creator: CorelDRAW Home & Student X8 -->
<svg xmlns="http://www.w3.org/2000/svg" xml:space="preserve" width="200mm" height="69.5mm" version="1.1" style="shape-rendering:geometricPrecision; text-rendering:geometricPrecision; image-rendering:optimizeQuality; fill-rule:evenodd; clip-rule:evenodd"
viewBox="0 0 20000 6950"
 xmlns:xlink="http://www.w3.org/1999/xlink">
 <defs>
  <style type="text/css">
   <![CDATA[
    .fil2 {fill:#FF4800}
    .fil1 {fill:black;fill-rule:nonzero}
    .fil0 {fill:black;fill-rule:nonzero}
   ]]>
  </style>
 </defs>
 <g id="Capa_x0020_1">
  <metadata id="CorelCorpID_0Corel-Layer"/>
  <g id="_519305520">
   <path class="fil0" d="M1283 6117l-157 0 0 -1118 157 0 0 1118zm844 -798l157 0 0 798 -157 0 0 -798zm485 315c0,-57 -15,-100 -44,-131 -29,-31 -70,-46 -123,-46 -51,0 -91,13 -119,41 -28,27 -42,65 -42,114l-16 -154c25,-48 57,-85 97,-111 39,-26 83,-40 131,-40 87,0 154,29 202,86 47,56 71,136 71,240l0 484 -157 0 0 -483zm1186 487c-65,0 -112,-18 -142,-53 -30,-36 -45,-89 -45,-158l0 -823 157 0 0 824c0,20 3,35 11,45 8,11 19,16 34,16l75 0 0 149 -90 0zm-270 -802l360 0 0 142 -360 0 0 -142zm1485 810c-74,0 -137,-14 -189,-42 -52,-27 -92,-68 -120,-122 -27,-53 -41,-118 -41,-194l0 -90c0,-79 13,-146 40,-202 26,-56 64,-99 115,-128 50,-29 110,-44 181,-44 67,0 124,17 171,50 47,34 83,82 108,145 25,63 37,139 37,227l0 52 -538 0 0 -126 389 0 0 0c-5,-65 -21,-116 -50,-152 -29,-36 -68,-54 -117,-54 -59,0 -105,19 -138,59 -33,38 -49,93 -49,165l0 101c0,66 18,117 52,152 35,36 85,54 149,54 32,0 63,-7 95,-20 31,-12 59,-30 84,-54l0 0 102 104 0 0c-39,37 -83,67 -133,88 -49,20 -98,31 -148,31zm1100 -810l157 0 0 798 -157 0 0 -798zm439 189c-13,-17 -31,-30 -52,-38 -21,-9 -45,-13 -73,-13 -50,0 -88,14 -116,41 -27,27 -41,65 -41,114l-16 -154c25,-47 56,-85 95,-111 39,-26 82,-40 129,-40 37,0 70,6 99,16 30,11 55,26 78,47l-103 138zm816 -509l157 0 0 157 -157 0 0 -157zm0 320l157 0 0 798 -157 0 0 -798zm1284 810c-69,0 -128,-14 -178,-41 -49,-27 -86,-67 -112,-119 -26,-52 -39,-114 -39,-188l0 -130c0,-72 13,-134 39,-185 26,-52 63,-91 112,-118 50,-27 109,-41 178,-41 69,0 129,14 178,41 49,27 86,66 112,118 26,51 39,113 39,185l0 132c0,73 -13,136 -39,187 -26,51 -63,91 -112,118 -49,27 -109,41 -178,41zm0 -149c55,0 97,-18 127,-52 30,-34 45,-82 45,-145l0 -132c0,-62 -15,-110 -45,-143 -30,-34 -72,-51 -127,-51 -55,0 -97,17 -127,51 -30,33 -45,81 -45,143l0 132c0,63 15,111 45,145 30,34 72,52 127,52zm1135 -661l157 0 0 798 -157 0 0 -798zm439 189c-14,-17 -31,-30 -52,-38 -21,-9 -45,-13 -73,-13 -50,0 -88,14 -116,41 -27,27 -41,65 -41,114l-16 -154c24,-47 56,-85 95,-111 39,-26 82,-40 129,-40 37,0 70,6 99,16 30,11 55,26 77,47l-102 138zm2206 460l253 0c83,0 147,-21 192,-64 45,-43 68,-103 68,-181l0 -329c0,-78 -23,-139 -68,-182 -45,-42 -109,-64 -192,-64l-253 0 0 -149 248 0c90,0 167,16 230,47 64,31 112,77 146,137 33,60 50,132 50,217l0 317c0,84 -17,156 -50,217 -34,59 -82,105 -146,136 -64,32 -141,47 -230,47l-248 0 0 -149zm-106 -969l157 0 0 1118 -157 0 0 -1118zm1928 1130c-74,0 -137,-14 -190,-42 -52,-27 -92,-68 -119,-122 -28,-53 -41,-118 -41,-194l0 -90c0,-79 13,-146 39,-202 27,-56 65,-99 115,-128 51,-29 111,-44 182,-44 66,0 123,17 171,50 47,34 83,82 108,145 24,63 37,139 37,227l0 52 -538 0 0 -126 389 0 0 0c-5,-65 -22,-116 -51,-152 -29,-36 -67,-54 -116,-54 -60,0 -106,19 -138,59 -33,38 -49,93 -49,165l0 101c0,66 17,117 52,152 35,36 85,54 149,54 31,0 63,-7 94,-20 31,-12 59,-30 84,-54l0 0 103 104 0 0c-39,37 -84,67 -133,88 -49,20 -99,31 -148,31zm1382 0c-47,0 -91,-5 -132,-14 -42,-9 -81,-23 -116,-42 -36,-18 -69,-41 -99,-69l0 0 92 -114 0 0c44,33 86,57 129,73 43,17 85,25 126,25 62,0 109,-10 140,-29 31,-19 46,-48 46,-86 0,-26 -8,-45 -25,-58 -17,-13 -38,-21 -63,-26 -25,-4 -61,-8 -106,-12 -4,0 -9,0 -13,0 -5,0 -9,-1 -14,-1 -2,0 -3,0 -6,0 -2,-1 -4,-1 -6,-1 -52,-4 -95,-12 -131,-23 -36,-11 -66,-31 -90,-62 -24,-30 -36,-73 -36,-129 0,-57 12,-104 35,-141 23,-38 57,-66 103,-84 46,-19 103,-29 172,-29 41,0 81,4 118,12 38,8 74,19 108,34 35,15 68,35 100,58l0 0 -95 114 0 0c-40,-26 -79,-45 -118,-58 -39,-12 -77,-19 -113,-19 -54,0 -94,9 -121,27 -26,19 -39,46 -39,82 0,22 7,38 22,49 15,11 34,18 58,21 23,4 55,7 98,10 3,0 6,0 9,0 4,0 7,1 11,1 2,0 3,0 5,0 1,0 3,0 4,1 56,3 104,11 143,22 39,12 72,34 99,67 26,34 40,82 40,145 0,57 -13,105 -37,142 -25,38 -62,66 -112,85 -49,19 -111,29 -186,29zm1117 -1130l157 0 0 157 -157 0 0 -157zm0 320l157 0 0 798 -157 0 0 -798zm1246 1123c-60,0 -114,-11 -161,-34 -48,-22 -85,-53 -111,-94l0 0 106 -96 0 0c21,28 45,50 74,65 28,16 58,24 89,24 60,0 107,-17 140,-50 32,-33 49,-80 49,-141l0 -797 157 0 0 774c0,74 -14,137 -41,189 -27,52 -66,92 -117,119 -51,27 -113,41 -185,41zm-15 -311c-58,0 -108,-13 -149,-38 -42,-25 -73,-62 -95,-111 -21,-49 -32,-107 -32,-176l0 -175c0,-69 11,-128 32,-177 21,-48 51,-85 91,-111 41,-25 89,-38 145,-38 48,0 91,12 130,37 39,25 71,59 95,104l-16 163c0,-34 -6,-63 -19,-87 -12,-24 -30,-42 -53,-55 -23,-13 -52,-19 -85,-19 -52,0 -92,16 -120,49 -29,32 -43,77 -43,136l0 173c0,58 14,103 43,135 28,31 68,47 120,47 33,0 62,-6 85,-20 23,-13 41,-32 53,-56 13,-25 19,-54 19,-88l10 168c-15,39 -41,73 -77,99 -37,27 -81,40 -134,40zm1179 -812l156 0 0 798 -156 0 0 -798zm484 315c0,-57 -14,-100 -44,-131 -29,-31 -70,-46 -123,-46 -51,0 -91,13 -119,41 -27,27 -42,65 -42,114l-16 -154c25,-48 57,-85 97,-111 40,-26 83,-40 132,-40 86,0 153,29 201,86 47,56 71,136 71,240l0 484 -157 0 0 -483z"/>
   <path class="fil1" d="M17874 1868l754 0c135,0 250,-49 346,-147 97,-99 145,-216 145,-353 0,-136 -48,-253 -145,-349 -96,-96 -211,-145 -346,-145l-956 0 0 994 202 0zm1717 359c273,256 409,566 409,931l0 1296 -805 0 0 -1296c0,-134 -49,-249 -145,-346 -96,-96 -212,-145 -346,-145l-1032 0 0 1787 -799 0 0 -4379 1755 0c357,0 662,127 916,381 254,254 380,559 380,915 0,323 -111,609 -333,856z"/>
   <path class="fil1" d="M15470 1516c0,-197 -70,-366 -211,-506 -140,-141 -308,-211 -503,-211 -195,0 -363,70 -503,211 -141,140 -211,309 -211,506l0 1497c0,197 70,365 211,504 140,138 308,207 503,207 195,0 363,-69 503,-207 141,-139 211,-307 211,-504l0 -1497zm799 1497c0,416 -148,772 -443,1070 -296,298 -652,447 -1070,447 -417,0 -774,-149 -1069,-447 -296,-298 -444,-654 -444,-1070l0 -1497c0,-419 148,-777 444,-1073 295,-295 652,-443 1069,-443 418,0 774,148 1070,443 295,296 443,654 443,1073l0 1497z"/>
   <polygon class="fil1" points="12966,75 12966,874 11853,874 11853,4454 11054,4454 11054,874 9940,874 9940,75 "/>
   <path class="fil1" d="M7729 3517c140,138 308,207 503,207 195,0 363,-69 503,-207 141,-139 211,-307 211,-504l799 0c0,416 -148,772 -443,1070 -296,298 -653,447 -1070,447 -417,0 -774,-149 -1069,-447 -296,-298 -444,-654 -444,-1070l0 -1497c0,-419 148,-777 444,-1073 295,-295 652,-443 1069,-443 417,0 774,148 1070,443 295,296 443,654 443,1073l-799 0c0,-197 -70,-366 -211,-506 -140,-141 -308,-211 -503,-211 -195,0 -363,70 -503,211 -141,140 -211,309 -211,506l0 1497c0,197 70,365 211,504z"/>
   <path class="fil1" d="M4712 874c-42,0 -81,11 -116,32 -36,21 -64,49 -85,85 -21,35 -32,74 -32,116l0 761 1485 0 0 799 -1485 0 0 988 1787 0 0 799 -2586 0 0 -3347c0,-285 101,-528 302,-730 202,-201 445,-302 730,-302l1554 0 0 799 -1554 0z"/>
   <path class="fil2" d="M1365 2648l557 0 -198 938c-17,92 -44,138 -82,138 -38,0 -65,-52 -82,-157l-195 -919z"/>
   <path class="fil1" d="M2466 75l818 0 -932 4379 -1421 0c-311,-1459 -621,-2919 -931,-4379l818 0 742 3492c17,105 44,157 82,157 38,0 65,-46 82,-138l742 -3511z"/>
   <rect class="fil2" x="914" y="6801" width="19064" height="149"/>
  </g>
 </g>
</svg>
