<?xml version="1.0" encoding="UTF-8"?>
<svg id="OBJECTS" xmlns="http://www.w3.org/2000/svg" viewBox="0 0 511.52 185.09">
  <defs>
    <style>
      .cls-1 {
        fill: #f4e6db;
      }

      .cls-2 {
        fill: #f4e7dc;
      }

      .cls-3 {
        fill: #ff743d;
      }
    </style>
  </defs>
  <g>
    <polygon class="cls-2" points="85.02 29.4 70.87 63.62 55.96 103.57 39.33 59.79 26.71 29.4 4.92 29.4 45.06 124.22 66.67 124.22 106.62 29.4 85.02 29.4"/>
    <path class="cls-2" d="M149.55,27.1c-29.44,0-49.52,20.46-49.52,49.13,0,30.21,19.88,49.9,50.85,49.9,14.53,0,30.78-5.35,40.53-16.06l-12.81-12.43c-5.74,6.5-17.78,10.13-27.34,10.13-17.21,0-29.06-9.37-30.78-23.71h76.47c3.63-38.43-17.02-56.97-47.41-56.97ZM120.87,67.44c3.06-14.91,14.91-22.75,29.25-22.75,15.87,0,26.77,7.84,27.91,22.75h-57.16Z"/>
    <path class="cls-2" d="M384.86,27.68c-29.25,0-48.56,21.41-48.56,49.13,0,8.79,1.9,16.9,5.42,23.89-1.9,1.42-3.77,2.53-5.57,3.41l-.05-.15c-2.34,1.17-4.9,2.12-7.41,2.69-1.97.4-3.64.53-4.89.55-9-.11-13.32-5.63-13.32-15.48v-44.93h27.72v-18.01h-27.53V2.44l-19.88,2.1v24.24h-18.16v18.01h18.16v44.93c0,22.18,11.66,33.84,32.12,33.26.3,0,.59-.02.89-.02.24,0,.47-.01.7-.02.37-.01.75-.02,1.11-.04,13.8-.69,22.26-7.07,26.19-10.99,8.3,7.44,19.59,11.84,33.05,11.84,29.63,0,48.94-21.03,48.94-48.94s-19.88-49.13-48.94-49.13ZM384.86,107.4c-17.97,0-28.87-13.76-28.87-30.59s10.9-30.97,28.87-30.97,29.06,14.34,29.06,30.97-10.9,30.59-29.06,30.59Z"/>
    <path class="cls-2" d="M488.19,27.48c-10.13,0-20.84,2.49-27.72,14.53l-1.34-12.43h-18.35v94.25h19.69v-51.04c0-17.4,11.85-25.81,25.43-25.81,7.26,0,11.85,1.91,16.63,5.74l8.99-17.21c-5.35-4.78-14.15-8.03-23.32-8.03Z"/>
    <path class="cls-2" d="M252.97,107.2c-16.25,0-30.02-10.51-30.02-30.4,0-18.74,13.19-30.78,30.21-30.78,3.38,0,6.84.56,10.16,1.69v-19.45c-3.31-.66-6.75-.98-10.35-.98-27.34,0-49.71,17.01-49.71,49.51s22.56,49.52,49.71,49.52c13.57,0,25.24-4.4,35.75-14.72l-13.38-13.19c-6.12,6.31-14.34,8.79-22.37,8.79Z"/>
    <polygon class="cls-3" points="43.75 71.37 55.96 106.08 67.89 71.37 43.75 71.37"/>
  </g>
  <g>
    <path class="cls-1" d="M96.14,164.21h2.78v20.29h-2.78v-20.29Z"/>
    <path class="cls-1" d="M109.03,164.21h3.24l10.12,16.39v-16.39h2.62v20.29h-3.09l-10.27-16.37v16.37h-2.62v-20.29Z"/>
    <path class="cls-1" d="M148.47,164.21v2.42h-6.84v17.87h-2.78v-17.87h-6.84v-2.42h16.45Z"/>
    <path class="cls-1" d="M156.92,164.21h14.72v2.49h-12.04v6.16h11.13v2.35h-11.13v6.88h12.25v2.42h-14.93v-20.29Z"/>
    <path class="cls-1" d="M181.51,164.21h9.22c1.52,0,2.77.23,3.76.68,1.87.87,2.81,2.46,2.81,4.79,0,1.22-.25,2.21-.75,2.98-.5.77-1.2,1.4-2.11,1.86.79.32,1.39.75,1.79,1.27.4.52.62,1.38.67,2.55l.1,2.72c.03.77.09,1.35.19,1.73.17.64.46,1.06.88,1.24v.46h-3.37c-.09-.18-.17-.4-.22-.68-.06-.28-.1-.81-.14-1.6l-.17-3.38c-.06-1.33-.54-2.21-1.44-2.67-.51-.25-1.31-.37-2.4-.37h-6.08v8.7h-2.75v-20.29ZM190.44,173.5c1.25,0,2.24-.26,2.97-.77.73-.52,1.09-1.45,1.09-2.79,0-1.45-.51-2.43-1.53-2.95-.55-.28-1.28-.41-2.19-.41h-6.53v6.93h6.18Z"/>
    <path class="cls-1" d="M207.88,164.21h2.78v20.29h-2.78v-20.29Z"/>
    <path class="cls-1" d="M237.48,167.11c1.34,1.8,2.02,4.09,2.02,6.89,0,3.03-.77,5.55-2.31,7.55-1.81,2.36-4.38,3.54-7.72,3.54-3.12,0-5.57-1.03-7.36-3.09-1.59-1.99-2.39-4.5-2.39-7.54,0-2.74.68-5.09,2.04-7.04,1.75-2.5,4.34-3.76,7.76-3.76s6.23,1.15,7.95,3.45ZM235.06,180.04c1.08-1.74,1.62-3.73,1.62-5.99,0-2.39-.62-4.31-1.87-5.76-1.25-1.46-2.95-2.18-5.12-2.18s-3.81.72-5.14,2.16c-1.32,1.44-1.99,3.57-1.99,6.38,0,2.25.57,4.14,1.71,5.69,1.14,1.54,2.98,2.32,5.53,2.32s4.17-.87,5.25-2.61Z"/>
    <path class="cls-1" d="M248.76,164.21h9.22c1.52,0,2.77.23,3.76.68,1.87.87,2.81,2.46,2.81,4.79,0,1.22-.25,2.21-.75,2.98-.5.77-1.2,1.4-2.11,1.86.79.32,1.39.75,1.79,1.27.4.52.62,1.38.67,2.55l.1,2.72c.03.77.09,1.35.19,1.73.17.64.46,1.06.88,1.24v.46h-3.37c-.09-.18-.17-.4-.22-.68-.06-.28-.1-.81-.14-1.6l-.17-3.38c-.06-1.33-.54-2.21-1.44-2.67-.51-.25-1.31-.37-2.4-.37h-6.08v8.7h-2.75v-20.29ZM257.69,173.5c1.25,0,2.24-.26,2.97-.77.73-.52,1.09-1.45,1.09-2.79,0-1.45-.51-2.43-1.53-2.95-.55-.28-1.28-.41-2.19-.41h-6.53v6.93h6.18Z"/>
    <path class="cls-1" d="M288.15,164.21h8.11c2.75,0,4.89.99,6.4,2.97,1.35,1.79,2.03,4.07,2.03,6.86,0,2.15-.4,4.1-1.2,5.84-1.41,3.07-3.83,4.61-7.26,4.61h-8.08v-20.29ZM295.72,182.15c.91,0,1.66-.1,2.24-.29,1.04-.36,1.9-1.05,2.57-2.07.53-.82.91-1.87,1.15-3.15.14-.76.2-1.47.2-2.13,0-2.51-.49-4.46-1.47-5.86-.98-1.39-2.55-2.09-4.72-2.09h-4.77v15.58h4.79Z"/>
    <path class="cls-1" d="M314.37,164.21h14.72v2.49h-12.04v6.16h11.13v2.35h-11.13v6.88h12.25v2.42h-14.93v-20.29Z"/>
    <path class="cls-1" d="M340.42,177.95c.06,1.15.32,2.09.78,2.8.88,1.34,2.43,2.02,4.64,2.02.99,0,1.9-.15,2.71-.44,1.58-.57,2.37-1.59,2.37-3.07,0-1.1-.34-1.89-1-2.36-.68-.46-1.74-.86-3.18-1.2l-2.66-.62c-1.74-.4-2.97-.85-3.69-1.34-1.25-.85-1.87-2.11-1.87-3.8,0-1.82.61-3.32,1.84-4.49,1.23-1.17,2.97-1.75,5.21-1.75,2.07,0,3.83.51,5.27,1.54,1.45,1.03,2.17,2.67,2.17,4.92h-2.58c-.13-1.09-.41-1.92-.85-2.5-.8-1.06-2.17-1.59-4.09-1.59-1.55,0-2.67.34-3.35,1.02-.68.68-1.02,1.47-1.02,2.38,0,.99.4,1.72,1.2,2.18.53.29,1.72.66,3.57,1.1l2.76.65c1.33.31,2.36.74,3.08,1.28,1.25.95,1.87,2.33,1.87,4.13,0,2.25-.8,3.85-2.39,4.82-1.59.97-3.45,1.45-5.56,1.45-2.46,0-4.39-.64-5.78-1.93-1.39-1.28-2.08-3.02-2.05-5.21h2.58Z"/>
    <path class="cls-1" d="M363.77,164.21h2.78v20.29h-2.78v-20.29Z"/>
    <path class="cls-1" d="M390.17,164.79c1.99,1.06,3.2,2.91,3.65,5.57h-2.72c-.32-1.48-1-2.56-2.01-3.24-1.02-.68-2.3-1.02-3.85-1.02-1.84,0-3.39.7-4.65,2.11s-1.89,3.51-1.89,6.3c0,2.41.52,4.38,1.56,5.89s2.73,2.27,5.07,2.27c1.8,0,3.28-.53,4.46-1.59,1.18-1.06,1.78-2.78,1.81-5.16h-6.35v-2.28h8.91v10.85h-1.77l-.66-2.61c-.91,1.02-1.73,1.73-2.43,2.13-1.19.68-2.69,1.02-4.52,1.02-2.36,0-4.4-.78-6.1-2.33-1.86-1.95-2.79-4.63-2.79-8.04s.91-6.1,2.72-8.11c1.72-1.92,3.96-2.87,6.7-2.87,1.88,0,3.5.37,4.87,1.1Z"/>
    <path class="cls-1" d="M404.32,164.21h3.24l10.12,16.39v-16.39h2.62v20.29h-3.09l-10.27-16.37v16.37h-2.62v-20.29Z"/>
  </g>
</svg>